<?xml version="1.0" encoding="UTF-8"?>
<svg version="1.1" xmlns="http://www.w3.org/2000/svg" width="1024" height="464">
<path d="M0 0 C4.70557108 2.89573605 8.07885766 7.36231011 11 12 C11 12.66 11 13.32 11 14 C11.66 14 12.32 14 13 14 C15.29507237 17.13032822 17.08036768 20.63043263 19 24 C19.71512587 25.21023869 20.43132188 26.41984551 21.1484375 27.62890625 C26.00801167 35.92522986 29.99696869 44.30246584 33.4921875 53.2578125 C34.38605424 55.54159919 35.32903748 57.64126929 36.453125 59.83203125 C38.62747879 64.28506388 40.24285346 68.8875604 41.875 73.5625 C42.22578613 74.56595459 42.57657227 75.56940918 42.93798828 76.60327148 C45.85684607 85.16592533 48.05313494 93.79963663 49.9921875 102.62890625 C50.77549897 106.17835718 51.81520992 109.5610966 53 113 C53.3153536 114.4115828 53.60910412 115.82827103 53.875 117.25 C55.66054941 125.48567362 58.92569211 133.24871286 64 140 C64.42152344 140.59167969 64.84304688 141.18335938 65.27734375 141.79296875 C68.87441567 145.80985809 72.38566625 146.37979078 77.56152344 146.76196289 C81.0439707 146.92764035 84.51347742 146.9921563 88 147 C88 146.34 88 145.68 88 145 C88.72316406 144.59007812 89.44632813 144.18015625 90.19140625 143.7578125 C93.56349907 141.64732325 95.61775635 139.02916093 97.9375 135.875 C98.37280029 135.2975 98.80810059 134.72 99.2565918 134.125 C102.23164976 130.1442497 104.98789754 126.0471129 107.6875 121.875 C109.53310284 119.23842452 111.62835138 117.16836445 114 115 C114.33 114.67 114.66 114.34 115 114 C120.79588336 113.53259005 120.79588336 113.53259005 123 114 C126.0125415 116.93075304 126.36348589 119.33638846 126.5 123.4375 C126.7856914 127.72287105 127.15290961 130.60539222 130 134 C135.10311291 137.40207527 141.05144591 136.66313903 147 136 C150.80639876 134.49864917 154.12950955 132.74098091 156 129 C156.66 129 157.32 129 158 129 C158.33 127.68 158.66 126.36 159 125 C159.66 125 160.32 125 161 125 C161.24492188 124.12988281 161.48984375 123.25976562 161.7421875 122.36328125 C163.8849681 116.63367224 167.57507609 112.17791858 172 108 C175.54989809 106.40845199 178.43572701 106.49819916 182.1796875 107.69921875 C184 109 184 109 184.58203125 111.3203125 C184.65808594 112.24585938 184.73414063 113.17140625 184.8125 114.125 C185.705937 120.29783746 188.23090345 124.02752314 193 128 C193.99 128.33 194.98 128.66 196 129 C196.15782959 128.40719238 196.31565918 127.81438477 196.47827148 127.20361328 C198.38578729 120.42001433 200.99250072 114.20885367 204.0625 107.875 C204.54565674 106.87380127 205.02881348 105.87260254 205.52661133 104.84106445 C212.02185955 91.61431937 219.79567504 76.89351257 231 67 C231.66 67 232.32 67 233 67 C233 66.34 233 65.68 233 65 C245.17596088 54.30552485 257.13743036 51.29699975 273 52 C283.29731324 53.33797327 291.90010747 58.8661008 300 65 C300.71414063 65.50015625 301.42828125 66.0003125 302.1640625 66.515625 C309.22370299 71.91257024 314.15576817 79.71968048 315.34472656 88.56445312 C316.01459083 97.98294676 315.78528997 106.2756151 312 115 C317.15935215 113.79249205 321.18034827 111.87187638 325.75390625 109.21875 C327.78169792 108.11845261 329.69893676 107.31010455 331.875 106.5625 C341.90140117 103.00858751 351.82442488 96.81056386 360.19140625 90.29296875 C362 89 362 89 364 89 C364.33 88.01 364.66 87.02 365 86 C367.0625 84.3125 367.0625 84.3125 369 83 C367.26502279 79.28219169 366.0861006 77.4267353 362.13671875 75.875 C355.80354367 74.19881202 349.08518628 74.920421 342.59960938 75.078125 C331.50318279 75.24041277 320.36890001 74.542815 311 68 C307.58680077 64.56368655 306 61.98308655 306 57 C305.34 57 304.68 57 304 57 C303.18448101 33.29662694 303.18448101 33.29662694 308 24 C308.28875 23.30390625 308.5775 22.6078125 308.875 21.890625 C312.75596505 12.9505448 319.14009482 6.39887247 328.21484375 2.81640625 C336.07592932 0.51210487 342.50901624 1.8407654 349.90234375 5.1796875 C357.84764667 9.84868014 364.38592045 16.75569771 370 24 C370 24.66 370 25.32 370 26 C370.66 26 371.32 26 372 26 C374 29 374 29 374 32 C374.66 32 375.32 32 376 32 C377.4606285 34.64738916 378 35.89448334 378 39 C378.66 39 379.32 39 380 39 C380.7945261 41.18646304 381.5854858 43.37422221 382.375 45.5625 C382.81585937 46.78066406 383.25671875 47.99882812 383.7109375 49.25390625 C386.52916366 57.44384227 387.37262523 64.63232971 387.37060547 73.22338867 C387.37496856 75.2975546 387.41133008 77.36956996 387.44921875 79.44335938 C387.51735004 87.42488959 386.75494916 93.88513202 383 101 C382.49597656 101.98613281 381.99195313 102.97226563 381.47265625 103.98828125 C378.69827671 108.56101207 376.04776051 112.43411574 372 116 C371.484375 116.495 370.96875 116.99 370.4375 117.5 C360.33509275 126.90568951 347.70087884 134.71139241 335 140 C333.59238004 140.64261644 332.1875887 141.29145237 330.78515625 141.9453125 C321.37799056 146.30101942 311.89820233 150.30316358 302.1875 153.9375 C301.18017822 154.31471191 300.17285645 154.69192383 299.13500977 155.08056641 C294.12942453 156.9276303 289.14776654 158.60034583 284 160 C283.01 160.350625 282.02 160.70125 281 161.0625 C278 162 278 162 274.6875 162.4375 C271.70346239 162.89269218 269.42381251 163.4924275 266.625 164.5 C262.68892188 165.89079261 259.00161537 166.48136182 254.84765625 166.7890625 C252.90694865 166.90366143 252.90694865 166.90366143 251 168 C233.28177772 170.70914783 216.50461015 171.00650477 199 167 C198.72027344 168.05445313 198.44054687 169.10890625 198.15234375 170.1953125 C197.18715678 173.38206542 196.16802194 175.98406018 194.5625 178.875 C194.15128906 179.63554687 193.74007813 180.39609375 193.31640625 181.1796875 C192 183 192 183 189 184 C186.37156116 182.99500868 185.27596315 182.55192629 184 180 C183.56235275 173.3065714 184.20855864 166.64245431 185 160 C184.319375 159.814375 183.63875 159.62875 182.9375 159.4375 C178.86343121 157.44380676 175.86623057 154.50225292 173 151 C173 150.34 173 149.68 173 149 C172.34 149 171.68 149 171 149 C170.62875 149.804375 170.62875 149.804375 170.25 150.625 C165.05717044 160.49137616 158.18098842 167.18392611 147.8125 171.25 C138.7844051 173.02601867 130.99422372 172.79653423 123 168 C119.9375 165.875 119.9375 165.875 118 164 C118 163.34 118 162.68 118 162 C117.34 162 116.68 162 116 162 C115.01 160.02 114.02 158.04 113 156 C110.19929472 160.14806691 110.19929472 160.14806691 107.625 164.4375 C105.43420135 167.89222094 102.94728594 171.15123058 100 174 C99.34 174 98.68 174 98 174 C98 174.66 98 175.32 98 176 C90.01234834 182.39012133 80.91241961 182.79056107 71 182 C65.14185255 180.78949291 59.95819758 178.30546505 55 175 C54.67 174.01 54.34 173.02 54 172 C53.401875 171.71125 52.80375 171.4225 52.1875 171.125 C49.25637394 169.61756374 47.84379353 167.69984053 46 165 C46 164.01 46 163.02 46 162 C45.34 162 44.68 162 44 162 C41.69 157.05 39.38 152.1 37 147 C36.13375 148.65 35.2675 150.3 34.375 152 C31.68420778 156.92886821 28.89487671 161.90568683 25 166 C24.34 166 23.68 166 23 166 C22.731875 166.804375 22.46375 167.60875 22.1875 168.4375 C21.795625 169.283125 21.40375 170.12875 21 171 C20.01 171.33 19.02 171.66 18 172 C17.58234375 172.84304688 17.58234375 172.84304688 17.15625 173.703125 C15.52607877 176.94143811 13.05806277 179.23778779 10.5 181.75 C9.69369141 182.54724487 9.69369141 182.54724487 8.87109375 183.3605957 C4.18038992 187.93694283 -0.76355451 192.0588442 -6 196 C-7.05058594 196.79792969 -8.10117187 197.59585938 -9.18359375 198.41796875 C-20.52938728 207 -20.52938728 207 -24 207 C-24 207.66 -24 208.32 -24 209 C-40.64639854 218.48591452 -56.84952833 224.41423273 -76.2890625 220.3046875 C-78.74069667 219.40145386 -80.79456437 218.39448751 -83 217 C-83.74507813 216.52949219 -84.49015625 216.05898438 -85.2578125 215.57421875 C-92.73277791 210.38996855 -96.52299147 202.65730202 -99 194 C-99.7011972 188.77926386 -99.59788791 183.5191036 -99.48706055 178.26318359 C-99.43742816 175.87153813 -99.42555096 173.48195972 -99.41992188 171.08984375 C-99.26567074 150.26567074 -99.26567074 150.26567074 -96 147 C-95.72367732 145.56732696 -95.47980329 144.12836665 -95.25 142.6875 C-93.85609576 135.35894284 -91.14448787 128.2167318 -87 122 C-83.875 121.8125 -83.875 121.8125 -81 122 C-80.48100257 140.37635328 -80.48100257 140.37635328 -82.5 146.8125 C-84.2294014 152.63785209 -84.37429761 158.27815349 -84.4375 164.3125 C-84.45941406 165.25649658 -84.48132813 166.20049316 -84.50390625 167.1730957 C-84.48631493 173.37128646 -83.43383989 176.85264 -80 182 C-80 182.66 -80 183.32 -80 184 C-79.030625 184.309375 -78.06125 184.61875 -77.0625 184.9375 C-74 186 -74 186 -73 187 C-56.12370919 188.04939219 -44.35642341 185.16293041 -30 176 C-29.39720215 175.62037109 -28.7944043 175.24074219 -28.17333984 174.84960938 C-20.46836571 169.97668065 -13.42180751 164.97454731 -6.85546875 158.6171875 C-5 157 -5 157 -3 157 C-3 156.34 -3 155.68 -3 155 C-1.53125 153.58984375 -1.53125 153.58984375 0.5 151.9375 C8.02326181 145.5287955 14.06316302 137.86067276 20 130 C20.53625 129.31035156 21.0725 128.62070312 21.625 127.91015625 C26.28130008 121.44160302 25.4020338 113.93678962 24.25 106.5 C23.43025911 102.33867643 22.24298776 98.99124181 20.20703125 95.29296875 C18.61228456 92.26346613 17.28518518 89.14682818 15.9375 86 C15.45152344 84.865625 14.96554687 83.73125 14.46484375 82.5625 C13.43601393 80.06038587 12.47032411 77.5744102 11.546875 75.03515625 C10.05837748 71.02695865 8.25339508 67.24373338 6.3125 63.4375 C5.97017334 62.7571167 5.62784668 62.0767334 5.27514648 61.37573242 C3.47757147 57.82438575 1.63486697 54.30205226 -0.265625 50.8046875 C-0.81150269 49.7983728 -0.81150269 49.7983728 -1.3684082 48.77172852 C-2.06354987 47.49780482 -2.76489172 46.22723811 -3.47338867 44.96069336 C-5.28239988 41.65682163 -6.49941861 38.74378475 -7 35 C-7.66 35 -8.32 35 -9 35 C-9.05868218 31.0208966 -9.0938239 27.04190647 -9.125 23.0625 C-9.14175781 21.94552734 -9.15851563 20.82855469 -9.17578125 19.67773438 C-9.21418058 13.13064874 -8.87703977 7.29399001 -7 1 C-4.39120333 -0.30439833 -2.90289827 -0.33754631 0 0 Z M328.1875 36.3125 C326.7122533 38.06499542 326.7122533 38.06499542 327 41 C330.06533164 42.53266582 333.26754272 42.10276471 336.625 42.0625 C337.33140625 42.05798828 338.0378125 42.05347656 338.765625 42.04882812 C340.51045275 42.03703875 342.255237 42.01910324 344 42 C339.05360339 36.77364947 339.05360339 36.77364947 332.4375 34.6875 C329.96179095 34.80720856 329.96179095 34.80720856 328.1875 36.3125 Z M242 91 C241.01 91.33 240.02 91.66 239 92 C235.18184547 95.44946203 232.13150635 99.30401251 229.1875 103.5 C228.75735596 104.11020996 228.32721191 104.72041992 227.8840332 105.34912109 C221.08162985 115.09340995 215.19058321 124.81839577 211 136 C229.97403207 140.55231096 251.33697175 135.1780402 268.234375 126.30078125 C270.91865235 124.63668445 273.45893311 122.87499936 276 121 C277.10901934 120.20913645 278.21841462 119.41879987 279.328125 118.62890625 C283.75559417 115.43284009 283.75559417 115.43284009 288 112 C288 111.34 288 110.68 288 110 C288.66 110 289.32 110 290 110 C290 109.34 290 108.68 290 108 C290.639375 107.731875 291.27875 107.46375 291.9375 107.1875 C294.33131686 106.11332248 294.33131686 106.11332248 295 103 C293.9778839 101.19108965 293.9778839 101.19108965 292.375 99.5 C291.86710937 98.9121875 291.35921875 98.324375 290.8359375 97.71875 C288.71096836 95.72941719 286.53172825 94.43501777 284 93 C283.04222656 92.40960938 282.08445312 91.81921875 281.09765625 91.2109375 C280.09605469 90.60507813 279.09445312 89.99921875 278.0625 89.375 C277.06347656 88.76398438 276.06445312 88.15296875 275.03515625 87.5234375 C265.52938143 82.75219917 249.67626391 83.04653768 242 91 Z " fill="#054D3A" transform="translate(593,146)"/>
<path d="M0 0 C1.875 2.4375 1.875 2.4375 3 5 C3.495 5.99 3.495 5.99 4 7 C6.17863953 25.96487855 -3.98146412 42.59880191 -14.3359375 57.51171875 C-15.75277584 59.63032444 -16.92994557 61.69235736 -18 64 C-17.41734375 64.26683594 -16.8346875 64.53367187 -16.234375 64.80859375 C-4.71088066 70.95311433 3.13406551 82.21528777 7.078125 94.3046875 C10.06065904 106.26009938 8.51126734 120.88443029 2.50390625 131.69140625 C1.05029886 133.8337553 -0.46701171 135.91427227 -2 138 C-7.29349525 147.64172349 -7.18965072 159.18490558 -7.3125 169.9375 C-7.33014404 170.82518066 -7.34778809 171.71286133 -7.3659668 172.62744141 C-7.36019415 178.18912061 -6.6428659 182.08079705 -4 187 C0.30683432 191.03765718 4.61239639 191.30101044 10.2734375 191.203125 C21.65005802 190.35558307 33.2367133 183.69777144 42.25 177 C45 175 45 175 48 175 C48 174.34 48 173.68 48 173 C50.22012184 171.39556769 52.44172208 169.90541788 54.75 168.4375 C61.73223956 163.89432991 68.40069276 159.08897016 75 154 C75.71929687 153.45214844 76.43859375 152.90429688 77.1796875 152.33984375 C83.6689292 147.35659588 89.98746674 142.15807052 96.328125 136.98828125 C96.95912109 136.47604004 97.59011719 135.96379883 98.24023438 135.43603516 C99.7899847 134.17138041 101.32582097 132.8897155 102.859375 131.60546875 C105 130 105 130 107 130 C107.2475 129.401875 107.495 128.80375 107.75 128.1875 C109.16370012 125.71352479 110.65055383 124.56629745 113 123 C112.67462254 119.96314367 112.04763274 119.04366334 109.75 116.9375 C107.209805 115.14781716 104.70104252 113.53468325 102 112 C101.32839844 111.60683594 100.65679687 111.21367187 99.96484375 110.80859375 C95.09200153 108.00859008 90.29071815 105.86025251 85 104 C76.62331145 100.94016078 68.7480941 96.98098713 60.82202148 92.92333984 C59.12750315 92.06461435 57.417768 91.23609914 55.70703125 90.41015625 C52.39395271 88.68429571 49.83943995 86.41654464 47 84 C45.34051852 82.98812105 43.67419438 81.9873454 42 81 C39.1875 78.9375 39.1875 78.9375 37 77 C37 76.34 37 75.68 37 75 C36.44570312 74.77183594 35.89140625 74.54367188 35.3203125 74.30859375 C32.34048506 72.62805134 30.2720288 70.49888301 27.875 68.0625 C26.57175781 66.74958984 26.57175781 66.74958984 25.2421875 65.41015625 C23 63 23 63 21 60 C19.23500572 59.14902061 17.46721783 58.29895652 15.65625 57.55078125 C10.97883384 53.17121943 11.49705914 43.82871461 11.1875 37.8125 C11.09178711 36.49862305 11.09178711 36.49862305 10.99414062 35.15820312 C10.78756514 31.3205543 10.808271 28.53616847 12.11328125 24.88671875 C14 23 14 23 16.77026367 22.73339844 C20.26259561 23.0216762 22.43360013 23.83213525 25.5625 25.37890625 C27.12013062 26.1383252 27.12013062 26.1383252 28.70922852 26.91308594 C29.79518311 27.45739258 30.8811377 28.00169922 32 28.5625 C33.11109131 29.1080957 34.22218262 29.65369141 35.36694336 30.21582031 C38.58392119 31.79885586 41.79283585 33.39719573 45 35 C46.58440041 35.78563037 48.16900318 36.57085292 49.75390625 37.35546875 C52.84330885 38.88922275 55.92490941 40.43769995 59 42 C59 44.97 59 47.94 59 51 C56.03 51.495 56.03 51.495 53 52 C53 52.66 53 53.32 53 54 C53.56847656 54.10828125 54.13695312 54.2165625 54.72265625 54.328125 C57.3318893 55.09791588 59.16251811 56.26147897 61.4375 57.75 C66.50152436 60.88954416 71.70778831 62.93907605 77.3125 64.921875 C80 66 80 66 82 68 C84.51150075 69.01621418 87.01311396 69.96491772 89.5625 70.875 C95.48304308 73.04191877 101.30288297 75.28872141 107 78 C107.68320313 78.31582031 108.36640625 78.63164062 109.0703125 78.95703125 C118.33819637 83.37953857 123.4142118 88.3044458 129 97 C129.99 98.485 129.99 98.485 131 100 C134.99247751 111.87885283 134.55280823 128.37797516 130 140 C124.90618749 149.36604236 118.18632858 156.22353912 110 163 C109.113125 163.74765625 108.22625 164.4953125 107.3125 165.265625 C100.36334159 171.04312298 93.18802854 176.52561229 86 182 C84.74703125 182.97259766 84.74703125 182.97259766 83.46875 183.96484375 C82.7571875 184.51269531 82.045625 185.06054688 81.3125 185.625 C80.40951172 186.32496094 80.40951172 186.32496094 79.48828125 187.0390625 C78 188 78 188 76 188 C76 188.66 76 189.32 76 190 C73.03 190.99 73.03 190.99 70 192 C70 192.66 70 193.32 70 194 C67.525 194.99 67.525 194.99 65 196 C65 196.66 65 197.32 65 198 C63.0234375 199.5859375 63.0234375 199.5859375 60.375 201.375 C59.51648438 201.96023438 58.65796875 202.54546875 57.7734375 203.1484375 C56.85820312 203.75945312 55.94296875 204.37046875 55 205 C53.59814453 205.94939453 53.59814453 205.94939453 52.16796875 206.91796875 C41.59263508 213.86821887 31.05947233 220.01109761 19 224 C18.01 224.33 17.02 224.66 16 225 C5.0572826 225.86945541 -3.36701121 225.48151153 -12.16015625 218.21484375 C-13.94745383 216.54125099 -15.57496498 214.99127409 -17 213 C-17 212.01 -17 211.02 -17 210 C-17.66 210 -18.32 210 -19 210 C-24.62088154 201.56867769 -24.42456547 190.96862161 -24.25 181.1875 C-24.24484375 180.01251953 -24.2396875 178.83753906 -24.234375 177.62695312 C-24.0940438 162.0940438 -24.0940438 162.0940438 -22 160 C-21.76924918 158.65252916 -21.58846937 157.29622435 -21.4375 155.9375 C-21.293125 154.638125 -21.14875 153.33875 -21 152 C-21.928125 152.61875 -22.85625 153.2375 -23.8125 153.875 C-31.67948765 158.32293467 -41.27948181 159.00121314 -50 157 C-56.63754946 154.43914614 -61.07471937 149.41739765 -64 143 C-67.40859677 125.60794297 -64.05305884 108.30493795 -57.76171875 92.02734375 C-56.39522119 88.39035794 -55.2053303 84.69292686 -54 81 C-53.34 81 -52.68 81 -52 81 C-52 79.35 -52 77.7 -52 76 C-56.12056906 76.55203796 -58.75902543 78.96154706 -61.875 81.5 C-67.61641683 86.05172427 -73.56692224 90.0700277 -79.76953125 93.9609375 C-82.53849297 95.7086981 -85.24216268 97.51709346 -87.9375 99.375 C-92.98026823 102.74308267 -97.71574127 105.57129625 -104 105 C-104 102.36 -104 99.72 -104 97 C-103.38125 96.7525 -102.7625 96.505 -102.125 96.25 C-99.64931313 94.79371361 -99.04874998 93.62187494 -98 91 C-97.34 91 -96.68 91 -96 91 C-96 90.34 -96 89.68 -96 89 C-94.56640625 87.51953125 -94.56640625 87.51953125 -92.5625 85.8125 C-91.47582031 84.88630859 -91.47582031 84.88630859 -90.3671875 83.94140625 C-87.28999139 81.41769921 -84.15261476 78.98109578 -80.98046875 76.578125 C-78.98455969 75.05897423 -78.98455969 75.05897423 -77.36328125 73.296875 C-76 72 -76 72 -74 72 C-73.773125 71.443125 -73.54625 70.88625 -73.3125 70.3125 C-71.64103234 67.36753316 -69.44723648 65.31843456 -67 63 C-68.33657024 60.09663689 -69.84722571 57.7897189 -71.9375 55.375 C-72.44152344 54.78460938 -72.94554688 54.19421875 -73.46484375 53.5859375 C-75.11186048 51.77228458 -75.11186048 51.77228458 -78 50 C-78 49.34 -78 48.68 -78 48 C-78.66 48 -79.32 48 -80 48 C-80.04946113 43.78248718 -80.08574827 39.56512832 -80.10986328 35.34741211 C-80.119917 33.91281188 -80.13356194 32.47823211 -80.15087891 31.04370117 C-80.17515549 28.98090562 -80.18648919 26.91838115 -80.1953125 24.85546875 C-80.20578613 23.61434326 -80.21625977 22.37321777 -80.22705078 21.09448242 C-80 18 -80 18 -78 15 C-72.17053705 15.4975226 -67.84591257 17.93183271 -62.8125 20.6875 C-61.97404541 21.13722168 -61.13559082 21.58694336 -60.27172852 22.05029297 C-54.79702685 24.99345369 -49.34585812 27.9825263 -43.93359375 31.0390625 C-42.06136491 32.14834711 -42.06136491 32.14834711 -40 32 C-39.773125 31.443125 -39.54625 30.88625 -39.3125 30.3125 C-37.63637157 27.35932134 -35.40327583 25.40327583 -33 23 C-31.39863218 20.88713877 -29.85312668 18.74549218 -28.33203125 16.57421875 C-27.89246094 16.05472656 -27.45289062 15.53523438 -27 15 C-26.34 15 -25.68 15 -25 15 C-24.34 13.68 -23.68 12.36 -23 11 C-22.34 11 -21.68 11 -21 11 C-20.773125 10.4225 -20.54625 9.845 -20.3125 9.25 C-18.65151778 6.40260191 -16.68475439 4.87932807 -14 3 C-13.34 3 -12.68 3 -12 3 C-12 2.34 -12 1.68 -12 1 C-7.69250393 -1.21901313 -4.66543739 -1.29595483 0 0 Z M-33 48 C-33 48.99 -33 49.98 -33 51 C-32.34 50.01 -31.68 49.02 -31 48 C-31.66 48 -32.32 48 -33 48 Z M-35 88 C-36.47622567 90.44561386 -37.94752523 92.89387762 -39.41015625 95.34765625 C-40.31946742 96.86466431 -41.23808499 98.37637858 -42.18359375 99.87109375 C-45.13304394 104.65677752 -46.52716147 109.63398954 -48 115 C-48.33 115.99 -48.66 116.98 -49 118 C-47.21405341 121.68328601 -47.21405341 121.68328601 -44 124 C-33.92317162 125.87251409 -25.28719579 121.29997668 -17 116 C-14.91443466 114.40733543 -12.96703685 112.7413613 -11 111 C-13.36557059 103.4731845 -19.71377271 99.5396973 -25.6953125 94.8671875 C-28 93 -28 93 -29.5546875 91.3828125 C-31.22125118 89.78831644 -32.90553524 88.938898 -35 88 Z " fill="#054D3A" transform="translate(148,163)"/>
<path d="M0 0 C3.36492947 1.13686908 4.23094598 2.54880435 6.15234375 5.5 C7.03792969 6.85158203 7.03792969 6.85158203 7.94140625 8.23046875 C8.48539062 9.10316406 9.029375 9.97585937 9.58984375 10.875 C10.25113281 11.92107422 10.25113281 11.92107422 10.92578125 12.98828125 C12.63543618 15.81951831 13.58984375 17.51346109 13.58984375 20.875 C14.24984375 20.875 14.90984375 20.875 15.58984375 20.875 C16.45372721 22.60276693 17.31759594 24.33054122 18.18139648 26.05834961 C18.91372087 27.52283525 19.64630673 28.98719016 20.37915039 30.45141602 C21.99186083 33.67433435 23.60148083 36.89852836 25.19921875 40.12890625 C25.85664062 41.45728516 25.85664062 41.45728516 26.52734375 42.8125 C26.90761719 43.58464844 27.28789062 44.35679688 27.6796875 45.15234375 C28.47034115 46.85379164 28.47034115 46.85379164 29.58984375 47.875 C29.66256116 50.22813555 29.67355243 52.58333668 29.65234375 54.9375 C29.64332031 56.22785156 29.63429688 57.51820312 29.625 58.84765625 C29.60759766 60.34619141 29.60759766 60.34619141 29.58984375 61.875 C27.7890625 62.95703125 27.7890625 62.95703125 25.58984375 63.875 C20.48984375 61.775 20.48984375 61.775 18.58984375 59.875 C20.54751949 77.31221557 20.54751949 77.31221557 24.83203125 94.26171875 C26.09274411 98.60922857 26.81300161 103.06414469 27.58789062 107.52026367 C28.22131617 111.31000583 28.22131617 111.31000583 29.58984375 114.875 C29.90041128 116.58477731 30.17565038 118.30102729 30.43359375 120.01953125 C31.65681453 127.60916316 33.36450017 135.07551634 35.08984375 142.5625 C35.40136854 143.92505552 35.71256784 145.28768549 36.0234375 146.65039062 C37.62010475 153.65594792 37.62010475 153.65594792 39.23852539 160.65649414 C40.10628266 164.42848626 40.81435596 168.07144883 41.02734375 171.9375 C41.35859951 176.40331833 42.17065938 180.57038075 43.15234375 184.9375 C46.31990264 200.15006879 46.11110148 217.72694787 42.58984375 232.875 C42.39519531 233.81859375 42.20054687 234.7621875 42 235.734375 C39.7056877 245.56326321 34.74727811 254.70791931 26.58984375 260.875 C18.09818514 265.9465699 8.7277412 270.33097463 -1.41015625 268.875 C-10.79201056 266.36684531 -19.27744406 261.98422671 -24.84765625 253.75 C-25.36328125 252.80125 -25.87890625 251.8525 -26.41015625 250.875 C-26.76851562 250.25625 -27.126875 249.6375 -27.49609375 249 C-34.15751296 236.78032655 -37.97384603 222.66853092 -39.41015625 208.875 C-40.79978868 211.58112632 -42.00648388 214.3116586 -43.16015625 217.125 C-46.66503363 225.03377535 -52.06424318 232.64432397 -60.41015625 235.875 C-61.73015625 235.875 -63.05015625 235.875 -64.41015625 235.875 C-64.0853125 236.49761719 -63.76046875 237.12023437 -63.42578125 237.76171875 C-62.00955339 242.10300185 -62.11327796 246.14968122 -62.16015625 250.6875 C-62.16619873 251.6165918 -62.17224121 252.54568359 -62.1784668 253.50292969 C-62.3913123 268.53369209 -63.77771185 282.22123057 -72.41015625 294.875 C-73.09078125 295.926875 -73.77140625 296.97875 -74.47265625 298.0625 C-77.93955218 303.09509087 -81.57900363 306.97879139 -86.2109375 310.92578125 C-88.51086374 312.96425939 -90.6428582 315.10953511 -92.78515625 317.3125 C-96.52493883 321.09695575 -100.44718276 324.42157158 -104.6484375 327.6796875 C-106.75561704 329.3547015 -108.79789029 331.0559217 -110.828125 332.8203125 C-111.41174805 333.32578613 -111.99537109 333.83125977 -112.59667969 334.35205078 C-113.7468966 335.35247648 -114.89226087 336.35851419 -116.03222656 337.37060547 C-120.07871681 340.875 -120.07871681 340.875 -123.41015625 340.875 C-124.07015625 342.195 -124.73015625 343.515 -125.41015625 344.875 C-126.40015625 344.875 -127.39015625 344.875 -128.41015625 344.875 C-128.41015625 345.535 -128.41015625 346.195 -128.41015625 346.875 C-130.14563794 348.32026736 -131.94991588 349.6837222 -133.78515625 351 C-134.78289062 351.72445313 -135.780625 352.44890625 -136.80859375 353.1953125 C-139.41015625 354.875 -139.41015625 354.875 -141.41015625 354.875 C-141.41015625 355.535 -141.41015625 356.195 -141.41015625 356.875 C-143.77384388 358.63512966 -146.13216855 360.26956615 -148.59765625 361.875 C-149.27119141 362.32617188 -149.94472656 362.77734375 -150.63867188 363.2421875 C-154.14521199 365.55479347 -157.45318753 367.41310037 -161.41015625 368.875 C-162.40015625 369.535 -163.39015625 370.195 -164.41015625 370.875 C-166.05442399 371.34479078 -167.69986726 371.81093601 -169.3515625 372.25390625 C-171.60685575 372.93434577 -173.73389531 373.78585445 -175.91015625 374.6875 C-184.98460765 378.39474539 -194.37328378 381.31967586 -203.77734375 384.06640625 C-207.05678675 385.07359423 -210.29056912 386.19823156 -213.53515625 387.3125 C-219.74510351 389.43421865 -226.00647497 391.12340636 -232.39501953 392.61889648 C-235.6790167 393.18357298 -235.6790167 393.18357298 -238.41015625 394.875 C-240.7417568 394.97409302 -243.07645567 395.00470504 -245.41015625 395 C-246.68890625 395.00257813 -247.96765625 395.00515625 -249.28515625 395.0078125 C-252.41015625 394.875 -252.41015625 394.875 -253.41015625 393.875 C-253.59792706 390.88568872 -253.60808089 389.54496185 -252.41015625 386.875 C-249.34561843 383.97532168 -245.86262474 381.84053679 -242.28515625 379.625 C-240.8775 378.70847656 -240.8775 378.70847656 -239.44140625 377.7734375 C-234.54468405 374.63240281 -229.78649606 372.06371112 -224.41015625 369.875 C-221.80679579 368.52914823 -219.2651784 367.08191939 -216.72265625 365.625 C-215.67827393 365.03174927 -215.67827393 365.03174927 -214.61279297 364.42651367 C-206.76270537 359.95760053 -198.95587512 355.41844088 -191.22265625 350.75 C-188.06952202 348.8469848 -184.8904162 347.01882348 -181.66015625 345.25 C-178.1096438 343.29752905 -174.76150415 341.15676878 -171.41015625 338.875 C-170.0206999 337.94869577 -168.62453337 337.03239683 -167.22265625 336.125 C-166.56910156 335.69703125 -165.91554688 335.2690625 -165.2421875 334.828125 C-163.41015625 333.875 -163.41015625 333.875 -160.41015625 333.875 C-160.41015625 333.215 -160.41015625 332.555 -160.41015625 331.875 C-158.90625 330.5078125 -158.90625 330.5078125 -156.84765625 329 C-155.85572266 328.26136719 -155.85572266 328.26136719 -154.84375 327.5078125 C-152.41015625 325.875 -152.41015625 325.875 -149.16015625 324.078125 C-144.790066 321.61793473 -140.91761022 318.58210625 -136.97265625 315.5 C-134.11978326 313.2899916 -131.26508168 311.08235594 -128.41015625 308.875 C-127.66878418 308.29717773 -126.92741211 307.71935547 -126.16357422 307.12402344 C-125.09260498 306.3007959 -125.09260498 306.3007959 -124 305.4609375 C-123.35796631 304.96384277 -122.71593262 304.46674805 -122.05444336 303.95458984 C-120.41015625 302.875 -120.41015625 302.875 -118.41015625 302.875 C-118.41015625 302.215 -118.41015625 301.555 -118.41015625 300.875 C-116.80078125 299.4375 -116.80078125 299.4375 -114.66015625 297.875 C-113.9640625 297.359375 -113.26796875 296.84375 -112.55078125 296.3125 C-110.55914004 294.97504751 -108.57987702 293.89144577 -106.41015625 292.875 C-106.41015625 292.215 -106.41015625 291.555 -106.41015625 290.875 C-104.765625 289.18359375 -104.765625 289.18359375 -102.59765625 287.3125 C-101.88996094 286.69246094 -101.18226563 286.07242187 -100.453125 285.43359375 C-98.41015625 283.875 -98.41015625 283.875 -95.41015625 282.875 C-94.73267186 281.54713061 -94.06855151 280.21243706 -93.41015625 278.875 C-91.80441753 277.02688562 -90.15375418 275.21734083 -88.47265625 273.4375 C-82.67559317 267.55122828 -82.67559317 267.55122828 -80.02734375 259.98046875 C-80.49613987 256.17747982 -81.75052725 253.57520484 -83.53515625 250.1875 C-83.85282959 249.5788208 -84.17050293 248.9701416 -84.49780273 248.34301758 C-85.45697461 246.51391582 -86.43276452 244.69441344 -87.41015625 242.875 C-87.93480469 241.87210938 -88.45945312 240.86921875 -89 239.8359375 C-91.78673841 234.58770335 -94.80165924 229.61784088 -98.2109375 224.75 C-101.71016098 219.2789014 -100.33239443 212.64680732 -100.09765625 206.4375 C-100.06220703 205.19677734 -100.02675781 203.95605469 -99.99023438 202.67773438 C-99.92545898 200.89012695 -99.92545898 200.89012695 -99.859375 199.06640625 C-99.80269653 197.42973999 -99.80269653 197.42973999 -99.74487305 195.76000977 C-99.42170673 192.97455657 -98.844188 191.25496678 -97.41015625 188.875 C-92.49899133 188.38388351 -89.39434715 188.23149056 -85.16015625 191 C-82.41965707 193.86506732 -79.9267191 196.81431545 -77.41015625 199.875 C-73.68436536 202.35886059 -71.82304223 202.2554212 -67.41015625 201.875 C-64.64573656 200.46740659 -64.64573656 200.46740659 -62.41015625 198.875 C-61.75015625 198.875 -61.09015625 198.875 -60.41015625 198.875 C-60.41015625 198.215 -60.41015625 197.555 -60.41015625 196.875 C-59.75015625 196.875 -59.09015625 196.875 -58.41015625 196.875 C-58.19359375 196.00875 -58.19359375 196.00875 -57.97265625 195.125 C-57.45182292 193.04166667 -56.93098958 190.95833333 -56.41015625 188.875 C-55.75015625 188.875 -55.09015625 188.875 -54.41015625 188.875 C-54.49265625 187.988125 -54.57515625 187.10125 -54.66015625 186.1875 C-54.64227766 177.40911228 -51.20102482 168.38972714 -45.41015625 161.875 C-43.03192636 160.14537826 -42.17762694 159.76213666 -39.28515625 160.1875 C-37.41015625 160.875 -37.41015625 160.875 -35.41015625 161.875 C-35.41015625 162.535 -35.41015625 163.195 -35.41015625 163.875 C-34.75015625 163.875 -34.09015625 163.875 -33.41015625 163.875 C-28.09805965 170.15845141 -23.7307373 178.22657484 -23.16015625 186.5 C-23.24265625 187.28375 -23.32515625 188.0675 -23.41015625 188.875 C-22.75015625 188.875 -22.09015625 188.875 -21.41015625 188.875 C-21.19101562 189.83277344 -20.971875 190.79054687 -20.74609375 191.77734375 C-15.89190455 213.83757898 -15.89190455 213.83757898 -3.22265625 231.875 C3.07235154 234.11322499 9.47873242 233.65872377 15.58984375 231.0625 C19.96065045 228.96547693 22.84765937 226.48363553 24.58984375 221.875 C24.65317712 219.6466121 24.65317712 219.6466121 24.27734375 217.3125 C23.81109586 213.66290444 23.45958577 210.04613035 23.21484375 206.375 C22.80816628 201.78535432 21.77601009 197.7198291 20.34765625 193.3515625 C19.32271266 190.00200457 18.70057072 186.61570782 18.05859375 183.17578125 C17.58182025 180.65211817 17.58182025 180.65211817 16.52734375 177.375 C15.73641109 174.42218475 15.3821105 171.95663514 15.15234375 168.9375 C14.87753076 165.62475438 14.37168199 162.94026536 13.08984375 159.875 C11.82920979 156.85675139 11.33378207 154.26267504 11.08984375 151 C10.75506284 146.52486747 9.70515883 142.65678134 8.3359375 138.3984375 C7.61208526 135.95022521 7.13170403 133.5795421 6.71484375 131.0625 C5.61993445 124.51176061 3.9888978 118.09630931 2.35400391 111.6628418 C1.06728216 106.45196068 0.27304727 101.41170577 -0.17944336 96.06518555 C-0.45587706 93.44096678 -1.09025196 91.06730759 -1.91015625 88.5625 C-3.4342062 83.36754129 -3.79453823 78.42962861 -4.09765625 73.04296875 C-4.39327749 70.04610839 -4.99931577 67.54701361 -5.91015625 64.6875 C-7.44290848 59.68588748 -7.68680754 54.99841094 -7.84765625 49.8125 C-8.04909652 43.52121607 -8.84697235 38.72682761 -11.54296875 32.9609375 C-14.35892904 26.18741139 -11.62527029 19.44921462 -9.41015625 12.875 C-9.17039062 12.05128906 -8.930625 11.22757813 -8.68359375 10.37890625 C-5.49665599 -0.28507778 -5.49665599 -0.28507778 0 0 Z " fill="#054D3A" transform="translate(398.41015625,47.125)"/>
<path d="M0 0 C2.82026474 1.44452584 3.99223274 2.5851937 5.5625 5.3125 C5.5625 6.3025 5.5625 7.2925 5.5625 8.3125 C6.2225 8.3125 6.8825 8.3125 7.5625 8.3125 C12.23679191 16.30128981 16.69471402 24.33162483 20.75390625 32.65625 C22.04064969 35.29173125 23.39128913 37.88415526 24.77734375 40.46875 C25.14730469 41.1714502 25.51726562 41.87415039 25.8984375 42.59814453 C26.61098621 43.94964982 27.3355153 45.29493519 28.07421875 46.63232422 C30.56256212 51.41275769 31.00082252 54.92574689 30.5625 60.3125 C29.375 62.3125 29.375 62.3125 27.5625 63.3125 C25.1875 63.75 25.1875 63.75 22.5625 63.3125 C20.8640077 62.01995234 19.19319629 60.68959302 17.5625 59.3125 C20.39373948 76.79125421 20.39373948 76.79125421 23.72265625 94.1796875 C24.40936219 97.51220606 25.05050079 100.85220215 25.68359375 104.1953125 C27.71733585 114.9339222 29.81195275 125.64372345 32.1875 136.3125 C33.8969059 143.99198132 35.37286174 151.66841437 36.60766602 159.43798828 C37.28910754 163.72569914 38.0923144 167.9413424 39.09375 172.1640625 C39.91343653 175.9209591 40.49009547 179.71962543 41.09765625 183.515625 C41.53184393 186.12804835 42.02771302 188.71901979 42.5625 191.3125 C43.26375 190.59964844 43.965 189.88679687 44.6875 189.15234375 C48.0359373 185.80272743 51.56391026 182.65293326 55.1015625 179.50585938 C57.73195536 177.12838891 60.09392727 174.73561988 62.3125 171.96484375 C63.055 171.08957031 63.7975 170.21429688 64.5625 169.3125 C65.2225 169.3125 65.8825 169.3125 66.5625 169.3125 C66.5625 167.3325 66.5625 165.3525 66.5625 163.3125 C64.5825 162.3225 64.5825 162.3225 62.5625 161.3125 C62.5625 160.6525 62.5625 159.9925 62.5625 159.3125 C61.9025 159.3125 61.2425 159.3125 60.5625 159.3125 C58.85256566 157.6902546 57.18902316 156.01836575 55.5625 154.3125 C54.74978638 153.69217896 54.74978638 153.69217896 53.9206543 153.05932617 C51.82637016 150.36570708 52.22550132 148.03673283 52.26953125 144.67578125 C52.27919922 143.37705078 52.28886719 142.07832031 52.29882812 140.74023438 C52.32389415 139.36848361 52.34928899 137.99673882 52.375 136.625 C52.3900498 135.24155076 52.4037377 133.85808599 52.41601562 132.47460938 C52.45142777 129.08684793 52.50081946 125.69986861 52.5625 122.3125 C53.2225 122.3125 53.8825 122.3125 54.5625 122.3125 C54.5625 121.6525 54.5625 120.9925 54.5625 120.3125 C56.8725 120.3125 59.1825 120.3125 61.5625 120.3125 C61.5625 120.9725 61.5625 121.6325 61.5625 122.3125 C62.40167969 122.48652344 62.40167969 122.48652344 63.2578125 122.6640625 C65.85347087 123.39436638 68.04004773 124.45516472 70.4375 125.6875 C71.75427734 126.36039063 71.75427734 126.36039063 73.09765625 127.046875 C73.91105469 127.46453125 74.72445312 127.8821875 75.5625 128.3125 C76.655625 128.84875 77.74875 129.385 78.875 129.9375 C81.517853 131.28965735 84.0348187 132.75700381 86.5625 134.3125 C87.490625 134.869375 88.41875 135.42625 89.375 136 C90.096875 136.433125 90.81875 136.86625 91.5625 137.3125 C92.2225 136.3225 92.8825 135.3325 93.5625 134.3125 C94.2225 134.3125 94.8825 134.3125 95.5625 134.3125 C95.73906128 133.42389282 95.73906128 133.42389282 95.91918945 132.51733398 C96.9689243 128.91955204 99.44341677 126.25898879 101.75 123.375 C102.21986328 122.76720703 102.68972656 122.15941406 103.17382812 121.53320312 C106.30854473 117.56883437 109.59777077 114.44344497 113.5625 111.3125 C114.0575 110.796875 114.5525 110.28125 115.0625 109.75 C119.7109566 105.29522909 123.21148204 103.86775012 129.51171875 103.9765625 C131.5625 104.3125 131.5625 104.3125 134.5625 106.3125 C136.09300322 110.01932572 135.7463503 114.17237261 135.75 118.125 C135.76224609 118.81142578 135.77449219 119.49785156 135.78710938 120.20507812 C135.80897284 127.90830678 133.25683862 134.42268342 130.1875 141.375 C129.75050781 142.3969043 129.75050781 142.3969043 129.3046875 143.43945312 C126.13683212 150.6713335 121.55356972 156.73685797 116.85546875 163.04296875 C116.42878906 163.79191406 116.00210938 164.54085937 115.5625 165.3125 C115.8925 166.3025 116.2225 167.2925 116.5625 168.3125 C117.5525 168.6425 118.5425 168.9725 119.5625 169.3125 C119.5625 169.9725 119.5625 170.6325 119.5625 171.3125 C120.2225 171.3125 120.8825 171.3125 121.5625 171.3125 C121.5625 171.9725 121.5625 172.6325 121.5625 173.3125 C122.14515625 173.5703125 122.7278125 173.828125 123.328125 174.09375 C125.7427903 175.41084017 127.37990177 176.86338384 129.3125 178.8125 C129.92609375 179.4209375 130.5396875 180.029375 131.171875 180.65625 C132.5625 182.3125 132.5625 182.3125 132.5625 184.3125 C133.2225 184.3125 133.8825 184.3125 134.5625 184.3125 C134.5625 185.6325 134.5625 186.9525 134.5625 188.3125 C135.2225 188.3125 135.8825 188.3125 136.5625 188.3125 C140.21889601 195.86905176 139.72317635 204.66349252 139.6875 212.875 C139.69136719 213.76896484 139.69523438 214.66292969 139.69921875 215.58398438 C139.68049043 228.38479352 137.29058462 235.50970944 128.375 244.9375 C118.74879926 254.20777399 107.1147916 261.1088954 93.5625 261 C92.6854541 260.99709961 91.8084082 260.99419922 90.90478516 260.99121094 C84.67860159 260.77968109 80.64206323 259.64563386 76.0234375 255.234375 C74.57921106 253.33448353 73.53457085 251.48762883 72.5625 249.3125 C71.9025 249.3125 71.2425 249.3125 70.5625 249.3125 C68.94454982 245.03425091 68.30637491 241.48437208 68.296875 236.91796875 C68.29429687 235.71462891 68.29171875 234.51128906 68.2890625 233.27148438 C68.29679688 232.02689453 68.30453125 230.78230469 68.3125 229.5 C68.30089844 227.65051758 68.30089844 227.65051758 68.2890625 225.76367188 C68.30834793 216.73326808 68.99157772 208.92917942 73 200.75 C74.54454126 197.51144575 75.98428143 194.31797122 77.1875 190.9375 C78.5625 187.3125 78.5625 187.3125 80.3125 184.5 C80.725 183.778125 81.1375 183.05625 81.5625 182.3125 C81.2325 181.3225 80.9025 180.3325 80.5625 179.3125 C76.37436128 182.42792744 72.22004653 185.57539456 68.125 188.8125 C57.07217419 197.41125605 57.07217419 197.41125605 50.6875 200 C47.06779519 201.51264489 47.06779519 201.51264489 44.5625 204.3125 C44.21251812 207.10359131 44.21251812 207.10359131 44.41015625 210.28125 C44.44077148 211.48362305 44.47138672 212.68599609 44.50292969 213.92480469 C44.54321289 215.20774414 44.58349609 216.49068359 44.625 217.8125 C44.85415176 232.1009936 45.01187401 251.41783833 35.078125 263.05078125 C34.57796875 263.46714844 34.0778125 263.88351562 33.5625 264.3125 C31.375 264 31.375 264 29.5625 263.3125 C28.08005915 258.49301657 27.11193426 253.89903168 26.5 248.875 C26.41548584 248.18760742 26.33097168 247.50021484 26.24389648 246.79199219 C25.66881612 241.88568092 25.35965518 236.99501123 25.125 232.0625 C24.83317912 226.27413874 23.92373862 220.96720656 22.375 215.3828125 C20.93036581 209.92376215 20.03186279 204.34986976 19.01904297 198.79785156 C16.71897181 186.27660856 14.35673561 173.76987264 11.57861328 161.34521484 C7.49462162 143.01684979 4.31630938 124.52786292 1.07739258 106.03466797 C0.66257279 103.67149668 0.24745976 101.30837685 -0.16796875 98.9453125 C-0.46584038 97.24823654 -0.46584038 97.24823654 -0.76972961 95.51687622 C-1.98975454 88.63391477 -3.37667041 81.81978135 -4.89868164 74.99755859 C-5.63563379 71.32515272 -5.91122081 67.8046694 -6.0625 64.0625 C-6.0996217 59.52120178 -6.0996217 59.52120178 -7.4375 55.3125 C-7.70114159 53.80399436 -7.92277387 52.28800594 -8.12109375 50.76953125 C-8.24419922 49.86009766 -8.36730469 48.95066406 -8.49414062 48.01367188 C-8.74544908 46.10759393 -8.99547653 44.2013466 -9.24414062 42.29492188 C-9.79502179 38.23895223 -10.37742166 34.50483134 -11.6015625 30.5859375 C-13.97558485 21.28953223 -8.82710994 8.45428477 -4.4375 0.3125 C-2.4375 -0.6875 -2.4375 -0.6875 0 0 Z M102.5625 149.3125 C101.9025 150.6325 101.2425 151.9525 100.5625 153.3125 C101.5525 152.6525 102.5425 151.9925 103.5625 151.3125 C103.2325 150.6525 102.9025 149.9925 102.5625 149.3125 Z M97.5625 192.3125 C95.2851499 195.12759993 95.2851499 195.12759993 95.5625 198.3125 C94.9025 198.3125 94.2425 198.3125 93.5625 198.3125 C90.60333679 203.21042531 88.50940605 207.93533091 86.5625 213.3125 C86.2325 213.6425 85.9025 213.9725 85.5625 214.3125 C85.32403097 216.5747358 85.32403097 216.5747358 85.3125 219.1875 C85.28671875 220.07179688 85.2609375 220.95609375 85.234375 221.8671875 C85.36805883 224.34223645 85.36805883 224.34223645 86.85546875 226.078125 C90.45289808 228.67946978 94.67085626 228.61134792 98.88671875 227.9453125 C107.70102736 225.64592764 116.35014896 221.010651 122.5625 214.3125 C120.56478473 206.987544 113.87929777 201.98505684 107.5625 198.3125 C106.9025 198.3125 106.2425 198.3125 105.5625 198.3125 C105.5625 197.6525 105.5625 196.9925 105.5625 196.3125 C101.92926311 193.35014305 101.92926311 193.35014305 97.5625 192.3125 Z " fill="#054D3A" transform="translate(445.4375,43.6875)"/>
<path d="M0 0 C2.31 0 4.62 0 7 0 C8.18771723 3.42943519 7.80226223 5.37784675 6.5625 8.75 C6.27503906 9.54921875 5.98757813 10.3484375 5.69140625 11.171875 C5.46324219 11.77515625 5.23507812 12.3784375 5 13 C4.34 13 3.68 13 3 13 C2.95875 13.556875 2.9175 14.11375 2.875 14.6875 C1.03447691 19.5517396 -3.89080142 22.08994915 -8.3828125 24.23828125 C-9.9590559 24.93985381 -11.53991239 25.63114505 -13.125 26.3125 C-13.92292969 26.67150391 -14.72085938 27.03050781 -15.54296875 27.40039062 C-19.41301838 29.09636396 -21.67074682 30 -26 30 C-26 30.66 -26 31.32 -26 32 C-29.04007685 33.29543103 -32.08233552 34.58565977 -35.125 35.875 C-35.9809375 36.23980469 -36.836875 36.60460938 -37.71875 36.98046875 C-42.1053058 38.83631928 -46.47226155 40.51338123 -51 42 C-52.88053618 42.95676402 -54.76061795 43.91445053 -56.63671875 44.87988281 C-59.33526023 46.15890227 -62.07546994 47.19467532 -64.875 48.234375 C-72.19248329 51.02181679 -79.31450182 54.19477853 -86.4375 57.4375 C-94.89544392 61.27443041 -103.37256942 65.04730206 -111.93066406 68.65576172 C-114.78385406 69.90533729 -117.54869856 71.25273509 -120.3125 72.6875 C-123.22295173 74.18269168 -125.99120742 75.38003441 -129.125 76.3125 C-133.53147436 77.67788642 -137.53512375 79.70920454 -141.625 81.8125 C-146.83945097 84.49287654 -152.02851216 86.88890797 -157.5 89 C-164.26293354 91.61974689 -170.65568339 94.74079481 -177.11328125 98.03125 C-180.81809626 99.91834678 -184.55034334 101.72957334 -188.3125 103.5 C-189.33988281 103.9846875 -190.36726562 104.469375 -191.42578125 104.96875 C-194 106 -194 106 -197 106 C-197 106.66 -197 107.32 -197 108 C-198.58074564 108.81752303 -200.16471223 109.62881997 -201.75 110.4375 C-202.63171875 110.88996094 -203.5134375 111.34242188 -204.421875 111.80859375 C-206.64198566 112.83455398 -208.61444619 113.51508603 -211 114 C-211 114.66 -211 115.32 -211 116 C-210.13375 116.226875 -209.2675 116.45375 -208.375 116.6875 C-204.31310864 118.26712442 -202.14636976 119.99997302 -199 123 C-198.07649273 125.77052181 -197.83670415 127.56688758 -197.8125 130.4375 C-197.79832031 131.19933594 -197.78414062 131.96117187 -197.76953125 132.74609375 C-198.04119229 135.40284665 -198.36430731 136.86750667 -200 139 C-205.21194406 140.79453164 -209.26717885 139.34069666 -214.25 137.625 C-214.96929688 137.39039063 -215.68859375 137.15578125 -216.4296875 136.9140625 C-219.02210727 136.05963201 -221.55510886 135.22244557 -224 134 C-224 133.34 -224 132.68 -224 132 C-224.61875 131.79375 -225.2375 131.5875 -225.875 131.375 C-228 130 -228 130 -229.3125 127.625 C-230.9547006 118.96612412 -229.72960398 111.62950803 -224.79296875 104.3125 C-215.29280595 92.05956672 -202.2975023 86.56921188 -188.5 80.4375 C-185.61323062 79.14753712 -182.72812513 77.85390039 -179.84375 76.55859375 C-179.15418716 76.24969208 -178.46462433 75.94079041 -177.75416565 75.62252808 C-173.1214887 73.53679013 -168.57557379 71.31450008 -164.04833984 69.00805664 C-161.2843313 67.64779546 -158.45572477 66.55344985 -155.5625 65.5 C-150.54021915 63.62031594 -145.69387378 61.52294994 -140.8359375 59.2578125 C-136.61076972 57.38384001 -132.284529 55.79949587 -127.9453125 54.2109375 C-125.08997576 53.03699269 -122.62170514 51.61783855 -120 50 C-118.00945124 49.30562253 -116.00744615 48.64389782 -114 48 C-106.86390989 45.28438892 -99.89633267 42.22042317 -92.94506836 39.06811523 C-87.39753722 36.57259473 -81.78537837 34.28811121 -76.125 32.0625 C-69.85600413 29.57981461 -63.67507802 27.00289253 -57.56640625 24.14453125 C-53.50875082 22.3349528 -49.343082 20.81814415 -45.1875 19.25 C-42.2369969 18.09293996 -39.37291706 16.83624049 -36.5 15.5 C-30.44372349 12.69471175 -24.24707519 10.34265319 -18 8 C-16.56225034 7.45117441 -15.12476164 6.90166485 -13.6875 6.3515625 C-12.22926328 5.79662107 -10.77093124 5.24193003 -9.3125 4.6875 C-8.61680908 4.42074463 -7.92111816 4.15398926 -7.2043457 3.87915039 C-2.22808852 2 -2.22808852 2 0 2 C0 1.34 0 0.68 0 0 Z " fill="#054D3A" transform="translate(925,22)"/>
<path d="M0 0 C1.32027314 5.76119187 1.02436458 9.82897105 -2 15 C-8.94369747 23.66922708 -21.79968521 27.06663807 -31.83203125 30.7265625 C-34.26346839 31.70393427 -36.51779978 32.73804371 -38.84375 33.92578125 C-43.73902294 36.4209758 -48.80482939 38.41906601 -53.90820312 40.44335938 C-57.83875386 42.02763005 -61.38875041 43.75809549 -65 46 C-66.23392901 46.51915306 -67.48411933 47.00201541 -68.75 47.4375 C-71.68623012 48.49322319 -74.53184349 49.65154935 -77.375 50.9375 C-80.64581387 52.40880036 -83.93085373 53.82832437 -87.25 55.1875 C-88.03890625 55.51105469 -88.8278125 55.83460937 -89.640625 56.16796875 C-92.07814448 57.02755757 -94.45710933 57.55364153 -97 58 C-97 58.66 -97 59.32 -97 60 C-98.45833333 60.58333333 -99.91666667 61.16666667 -101.375 61.75 C-102.29667969 62.11996094 -103.21835937 62.48992187 -104.16796875 62.87109375 C-105.89610684 63.55996535 -107.62720187 64.24155047 -109.36328125 64.91015625 C-114.94310255 67.07643981 -120.35597531 69.52622993 -125.76831055 72.08129883 C-131.15068397 74.61837058 -136.56918432 77.06855301 -142 79.5 C-156.83969995 86.12000959 -156.83969995 86.12000959 -171.4375 93.25 C-174.46605722 94.73771232 -177.46483666 95.89493148 -180.6328125 97.03515625 C-183.67898802 98.27674924 -186.56855928 99.75769061 -189.5 101.25 C-194.7984771 103.94094457 -200.13863198 106.5082676 -205.5625 108.9375 C-206.22894531 109.24397461 -206.89539063 109.55044922 -207.58203125 109.86621094 C-211.17132605 111.45111804 -214.0609571 112.4767929 -218 112 C-219 111 -219 111 -219.21484375 108.29296875 C-218.98143169 104.71539843 -218.13762064 102.51182437 -216.5625 99.3125 C-215.21364938 96.5340983 -213.97757872 93.93273617 -213 91 C-206.83854589 86.09598551 -200.18050173 82.86561956 -192.9453125 79.83203125 C-190.63274726 78.84292202 -188.34910669 77.79774366 -186.0625 76.75 C-180.76661682 74.3315224 -175.43873558 71.9918401 -170.09790039 69.67480469 C-166.29038798 68.01847596 -162.5034469 66.32279561 -158.7265625 64.59765625 C-152.97238993 61.97463484 -147.17911013 59.44770004 -141.375 56.9375 C-133.22267387 53.40806807 -133.22267387 53.40806807 -125.09765625 49.81640625 C-122.1077524 48.48344085 -119.10909547 47.19936272 -116.0625 46 C-115.23105469 45.67 -114.39960938 45.34 -113.54296875 45 C-111.83863098 44.32978422 -110.13287987 43.66315212 -108.42578125 43 C-104.64875342 41.51926627 -100.96023569 40.02769087 -97.375 38.125 C-92.7626319 35.73444336 -87.87843052 34.06646071 -83.0078125 32.29052734 C-78.16622153 30.50099735 -73.60017212 28.41433425 -69.0234375 26.01953125 C-66.42665202 24.71111231 -63.77306508 23.86658284 -61 23 C-58.64115992 22.08862997 -56.29714066 21.14408074 -53.953125 20.1953125 C-52.24394407 19.50350117 -50.5333474 18.81512554 -48.8190918 18.13598633 C-42.60520946 15.67062621 -36.45084817 13.08480216 -30.3125 10.4375 C-28.96575195 9.85838867 -28.96575195 9.85838867 -27.59179688 9.26757812 C-25.85136239 8.51912754 -24.11119693 7.77005096 -22.37133789 7.02026367 C-20.27543339 6.1185047 -18.17716294 5.22255564 -16.078125 4.328125 C-13.84594946 3.36500358 -11.63457024 2.35321748 -9.4375 1.3125 C-5.99275039 -0.00276803 -3.64437141 -0.26666132 0 0 Z " fill="#054D3A" transform="translate(375,47)"/>
<path d="M0 0 C2.536612 8.45537334 -0.53164318 15.43433097 -4.5 22.875 C-6.24473467 26.00221511 -8.01352213 29.0202832 -10 32 C-10.66 32 -11.32 32 -12 32 C-12.0928125 32.86625 -12.0928125 32.86625 -12.1875 33.75 C-14.61790132 40.48034211 -24.98563983 44.13284382 -31 47 C-40.13005657 50.70977968 -49.18793474 52.06558867 -59 52 C-59.33 51.67 -59.66 51.34 -60 51 C-60 46.46445241 -59.42409554 44.4745831 -56.375 41.0625 C-51.04216089 36.93563488 -44.8475642 34.03095902 -38.859375 30.98339844 C-36.93922057 29.96785457 -35.08347201 28.87135711 -33.21875 27.7578125 C-30 26 -30 26 -27 26 C-27 25.34 -27 24.68 -27 24 C-43.49739555 23.32270613 -43.49739555 23.32270613 -58 28 C-59.66617115 28.04063832 -61.33388095 28.042721 -63 28 C-64.45369052 25.09261897 -64.29639413 23.26033542 -64 20 C-63.14203784 17.70219046 -62.13745565 15.52050598 -61.078125 13.30859375 C-60.06027169 11.12906003 -59.23177637 8.95625751 -58.4375 6.6875 C-55.75437681 -0.19529428 -55.75437681 -0.19529428 -51.68359375 -2.0625 C-39.8403079 -6.19989244 -10.34802798 -7.73359688 0 0 Z " fill="#054D3A" transform="translate(848,126)"/>
<path d="M0 0 C1.12902992 -0.00855011 1.12902992 -0.00855011 2.28086853 -0.01727295 C3.87888177 -0.0267303 5.47691458 -0.03325984 7.07495117 -0.03710938 C9.49368661 -0.04674097 11.91154492 -0.07772463 14.33007812 -0.109375 C23.5550157 -0.1729763 31.51138316 -0.09918206 39.46484375 5.203125 C39.828125 8.06640625 39.828125 8.06640625 39.77734375 11.515625 C39.77347656 12.64613281 39.76960938 13.77664062 39.765625 14.94140625 C39.47457306 18.09761882 38.80689536 20.3532704 37.46484375 23.203125 C36.80484375 23.203125 36.14484375 23.203125 35.46484375 23.203125 C35.32046875 23.821875 35.17609375 24.440625 35.02734375 25.078125 C34.46484375 27.203125 34.46484375 27.203125 33.46484375 29.203125 C32.80484375 29.203125 32.14484375 29.203125 31.46484375 29.203125 C31.46484375 30.523125 31.46484375 31.843125 31.46484375 33.203125 C29.86062312 35.06609089 28.28940773 36.57557966 26.46484375 38.203125 C25.51738281 39.15445313 25.51738281 39.15445313 24.55078125 40.125 C19.44294687 45.06566889 14.52288306 47.81534521 7.87109375 50.29296875 C5.54757238 50.98332547 5.54757238 50.98332547 4.46484375 52.203125 C2.16043236 52.73917013 -0.15403246 53.23233844 -2.47265625 53.703125 C-7.14012157 54.55122679 -7.14012157 54.55122679 -11.53515625 56.203125 C-13.22047585 56.29846754 -14.90964891 56.33298258 -16.59765625 56.328125 C-17.94537109 56.33199219 -17.94537109 56.33199219 -19.3203125 56.3359375 C-21.53515625 56.203125 -21.53515625 56.203125 -22.53515625 55.203125 C-22.921875 52.90625 -22.921875 52.90625 -22.53515625 50.203125 C-20.3046875 48 -20.3046875 48 -17.34765625 45.953125 C-16.38472656 45.26734375 -15.42179687 44.5815625 -14.4296875 43.875 C-11.67753586 42.28536316 -9.66107949 41.5917224 -6.53515625 41.203125 C-6.53515625 40.543125 -6.53515625 39.883125 -6.53515625 39.203125 C-5.63152344 38.72101563 -4.72789062 38.23890625 -3.796875 37.7421875 C-2.60542608 37.10424635 -1.41402219 36.4662211 -0.22265625 35.828125 C0.37224609 35.51101562 0.96714844 35.19390625 1.58007812 34.8671875 C4.29850263 33.40926151 6.89551929 31.91600797 9.46484375 30.203125 C-1.75515625 29.873125 -12.97515625 29.543125 -24.53515625 29.203125 C-24.53515625 22.90450177 -23.43863512 19.64587841 -20.97265625 14.078125 C-20.64974609 13.28019531 -20.32683594 12.48226562 -19.99414062 11.66015625 C-17.49657477 5.96094882 -15.21087235 3.75951522 -9.53515625 1.203125 C-6.49822489 -0.31534068 -3.33294557 0.01948295 0 0 Z " fill="#054D3A" transform="translate(335.53515625,128.796875)"/>
<path d="M0 0 C3.84567586 2.01696286 6.32678552 4.45556679 8.0625 8.4375 C7.85385417 16.99197898 3.78811657 24.91505694 -2 31 C-2.66 31 -3.32 31 -4 31 C-4 31.66 -4 32.32 -4 33 C-4.99 33 -5.98 33 -7 33 C-7.33 33.99 -7.66 34.98 -8 36 C-15.25088469 41.60798271 -23.17881905 41.80296836 -32 41 C-33.485 40.505 -33.485 40.505 -35 40 C-36.59993443 39.85680449 -38.20644312 39.77960474 -39.8125 39.75 C-40.64394531 39.72421875 -41.47539063 39.6984375 -42.33203125 39.671875 C-49.03474394 40.49622034 -53.09908425 44.68085185 -57.5625 49.3125 C-58.11357422 49.86873047 -58.66464844 50.42496094 -59.23242188 50.99804688 C-61.81705 53.63173081 -64.28541955 56.30099094 -66.609375 59.16796875 C-73.00838884 66.74849985 -83.48789275 75.57216755 -93.625 76.875 C-94.73875 76.91625 -95.8525 76.9575 -97 77 C-97.875 74.9375 -97.875 74.9375 -98 72 C-95.05878564 67.10572631 -90.37269893 63.54177576 -86.08203125 59.8828125 C-81.16580835 55.43699742 -76.88149193 50.39047216 -73.125 44.9375 C-72.42375 43.968125 -71.7225 42.99875 -71 42 C-70.34 42 -69.68 42 -69 42 C-68.75121094 41.43796875 -68.50242187 40.8759375 -68.24609375 40.296875 C-63.07479432 30.76482463 -52.40082148 21.28446994 -42 18 C-39.73703593 17.71878758 -37.46369338 17.51295111 -35.1875 17.375 C-34.02605469 17.30023438 -32.86460937 17.22546875 -31.66796875 17.1484375 C-30.34732422 17.07496094 -30.34732422 17.07496094 -29 17 C-28.505 15.515 -28.505 15.515 -28 14 C-27.34 14 -26.68 14 -26 14 C-25.835 13.29875 -25.67 12.5975 -25.5 11.875 C-23.290387 7.63990842 -19.88544347 5.64088736 -16 3 C-14.8553125 2.071875 -14.8553125 2.071875 -13.6875 1.125 C-9.17612497 -0.76348257 -4.79266889 -0.84898706 0 0 Z M-15 18 C-15.33 18.66 -15.66 19.32 -16 20 C-15.01 19.67 -14.02 19.34 -13 19 C-13.66 18.67 -14.32 18.34 -15 18 Z " fill="#054D3A" transform="translate(882,316)"/>
<path d="M0 0 C2.8125 1.4375 2.8125 1.4375 5 3 C5 3.66 5 4.32 5 5 C5.71929688 5.09796875 6.43859375 5.1959375 7.1796875 5.296875 C10.40025502 6.09978657 12.41661427 7.34501921 15.125 9.25 C16.39730469 10.12398438 16.39730469 10.12398438 17.6953125 11.015625 C20.23893812 13.20572977 21.64617548 14.92732661 23 18 C22.85546875 20.67578125 22.85546875 20.67578125 22.1875 23.3125 C21.86845703 24.63701172 21.86845703 24.63701172 21.54296875 25.98828125 C21.36378906 26.65214844 21.18460938 27.31601562 21 28 C20.34 28 19.68 28 19 28 C18.95875 28.825 18.9175 29.65 18.875 30.5 C17.68405637 35.26377452 15.61116432 38.65844749 12 42 C8.75 42.9375 8.75 42.9375 5 42 C2.34525502 40.35819428 -0.13110912 38.57315036 -2.62109375 36.69140625 C-5.29264899 34.79192609 -7.81287937 33.75484436 -11 33 C-11.32613281 33.60328125 -11.65226563 34.2065625 -11.98828125 34.828125 C-12.42527344 35.62734375 -12.86226562 36.4265625 -13.3125 37.25 C-13.74175781 38.03890625 -14.17101562 38.8278125 -14.61328125 39.640625 C-18.08962818 45.55531104 -18.08962818 45.55531104 -20.86328125 46.91015625 C-23.90402843 47.03801216 -25.56414512 45.94791645 -28.1875 44.4375 C-29.15300781 43.88320313 -30.11851562 43.32890625 -31.11328125 42.7578125 C-34.49173417 40.70056782 -37.79104472 38.55456258 -41.0546875 36.3203125 C-43.31571075 34.78572243 -45.65091527 33.39476906 -48 32 C-49 31 -49 31 -49.26953125 27.84375 C-48.96528541 23.50493973 -47.87274635 21.22803931 -45.6875 17.5 C-43.15397335 13.05737145 -40.93312044 8.72540551 -39 4 C-38 3 -38 3 -35.87890625 2.69921875 C-32.00846719 3.10359298 -29.20047099 4.83672435 -25.9375 6.8125 C-25.32583984 7.16892578 -24.71417969 7.52535156 -24.08398438 7.89257812 C-20.91334583 9.76068408 -17.88740813 11.71743547 -15 14 C-14.03980636 12.41779413 -13.08192202 10.83418669 -12.125 9.25 C-11.59132813 8.36828125 -11.05765625 7.4865625 -10.5078125 6.578125 C-9.00179144 4.08958965 -9.00179144 4.08958965 -7.9296875 1.734375 C-5.98284082 -1.89755746 -3.49371594 -0.9749905 0 0 Z " fill="#054D3A" transform="translate(723,335)"/>
<path d="M0 0 C3.97675591 3.47966142 5.77062114 7.83574803 6.15234375 13.1015625 C6.23028978 18.14207271 5.72481272 23.01691255 5 28 C5.804375 28.45375 6.60875 28.9075 7.4375 29.375 C10 31 10 31 11 33 C11.743223 40.06061853 9.81455039 44.11469369 6 50 C2.0507432 49.44894091 -1.34920174 48.61064629 -5 47 C-5.78375 47.99 -6.5675 48.98 -7.375 50 C-11.34000613 54.63848803 -15.9875603 58.52915596 -21 62 C-21.66 62 -22.32 62 -23 62 C-23 62.66 -23 63.32 -23 64 C-25.82883377 66.24510617 -28.93976452 68.08673484 -32 70 C-33.0725 70.680625 -34.145 71.36125 -35.25 72.0625 C-43.33530097 76.54396012 -56.94633801 83.29533025 -66.33984375 81.5703125 C-67.16162109 81.28800781 -67.16162109 81.28800781 -68 81 C-68.5390625 78.34765625 -68.5390625 78.34765625 -68 75 C-65.42002148 72.65521289 -62.42678213 71.09587153 -59.375 69.4375 C-57.75515104 68.52423587 -56.13790662 67.60633504 -54.5234375 66.68359375 C-53.74758301 66.24031738 -52.97172852 65.79704102 -52.17236328 65.34033203 C-49.17067222 63.48831091 -46.64535321 61.32871245 -44 59 C-41.02509505 57.01673003 -38.52455309 55.65269502 -35 55 C-35 54.34 -35 53.68 -35 53 C-33.09375 51.484375 -33.09375 51.484375 -30.5 49.75 C-25.89791839 46.62294455 -21.42369828 43.37337886 -17 40 C-17.721875 39.29875 -18.44375 38.5975 -19.1875 37.875 C-19.63867188 37.41222656 -20.08984375 36.94945312 -20.5546875 36.47265625 C-21.94456758 35.05648114 -23.37789287 33.68334681 -24.8125 32.3125 C-27.82705794 27.74759797 -27.85338828 24.32160047 -27 19 C-24.76599512 11.04957087 -19.79046533 4.77967458 -13.1875 -0.0625 C-8.60912409 -1.40908115 -4.59672681 -1.28739943 0 0 Z M-12 17 C-12 17.66 -12 18.32 -12 19 C-9.525 19.99 -9.525 19.99 -7 21 C-7.66 19.68 -8.32 18.36 -9 17 C-9.99 17 -10.98 17 -12 17 Z " fill="#054D39" transform="translate(547,39)"/>
<path d="M0 0 C6.24723226 -0.82200425 10.71317837 2.07448606 16 5 C16 5.66 16 6.32 16 7 C16.56203125 7.11730469 17.1240625 7.23460937 17.703125 7.35546875 C22.17376953 8.60998635 25.86043478 10.54060381 29 14 C30.36644185 19.33281632 30.03451477 24.83324032 27.3125 29.6875 C26.94640625 30.21085937 26.5803125 30.73421875 26.203125 31.2734375 C24.28631369 34.0241862 22.92431482 37.08004562 21.44140625 40.08203125 C19.52089515 42.63750808 18.12259779 43.35235009 15 44 C12.640625 42.83984375 12.640625 42.83984375 10.25 40.9375 C5.6951453 37.47690469 1.06039321 34.65242832 -4 32 C-4.226875 33.010625 -4.45375 34.02125 -4.6875 35.0625 C-5.93255008 39.33746216 -7.82741471 42.84499136 -11 46 C-13.8125 47.3125 -13.8125 47.3125 -17 47 C-18.97482006 45.81416307 -20.66640237 44.43454608 -22.4375 42.9609375 C-26.38270643 39.94189234 -30.68287316 37.54688783 -34.98413086 35.07275391 C-39.89756905 32.20486189 -39.89756905 32.20486189 -41 30 C-41.81014572 24.59902855 -39.76965421 21.08963393 -37.30078125 16.46484375 C-36.1979575 14.37510866 -35.25530712 12.313999 -34.375 10.125 C-32.0925 4.9375 -32.0925 4.9375 -30 3 C-27 2.5625 -27 2.5625 -24 3 C-22.99708881 3.99708031 -21.9976443 4.99764983 -21 6 C-19.19420472 7.06879148 -17.35749286 8.0863176 -15.5 9.0625 C-12.555813 10.61769555 -9.77316705 12.15122196 -7 14 C-6.66226563 13.32453125 -6.32453125 12.6490625 -5.9765625 11.953125 C-3.984375 7.96875 -1.9921875 3.984375 0 0 Z " fill="#054D3A" transform="translate(109,126)"/>
<path d="M0 0 C4.03253283 0.43831879 6.45012971 2.16356178 9.875 4.3125 C9.875 4.9725 9.875 5.6325 9.875 6.3125 C10.59171875 6.4053125 11.3084375 6.498125 12.046875 6.59375 C15.35526933 7.4345574 17.37675215 8.80479798 20.125 10.8125 C20.99640625 11.4415625 21.8678125 12.070625 22.765625 12.71875 C25.8013703 15.01242422 25.8013703 15.01242422 26.2890625 17 C26.90013628 23.69917923 24.72054414 28.50823966 21.6875 34.3125 C21.30094238 35.06660156 20.91438477 35.82070312 20.51611328 36.59765625 C18.75690715 39.79542145 17.45838602 41.91742213 14.40625 43.984375 C10.9407638 44.43360469 9.46863658 43.43964896 6.5625 41.5625 C5.67949219 41.01078125 4.79648437 40.4590625 3.88671875 39.890625 C3.22285156 39.36984375 2.55898438 38.8490625 1.875 38.3125 C1.875 37.6525 1.875 36.9925 1.875 36.3125 C0.946875 36.02375 0.01875 35.735 -0.9375 35.4375 C-4.125 34.3125 -4.125 34.3125 -7.125 32.3125 C-7.24359375 32.87710938 -7.3621875 33.44171875 -7.484375 34.0234375 C-8.87985721 39.00973369 -11.29559348 43.96451625 -15.5 47.0625 C-19.36904699 47.43098067 -21.74624469 46.12701674 -25.125 44.3125 C-26.14519573 43.3331121 -27.14649805 42.33354551 -28.125 41.3125 C-30.11565541 40.29402514 -32.11748185 39.29732022 -34.125 38.3125 C-41.85472973 33.85304054 -41.85472973 33.85304054 -43.125 31.3125 C-43.58868485 25.0118412 -42.52094296 20.74317753 -39.875 15.0625 C-39.57464844 14.36898437 -39.27429688 13.67546875 -38.96484375 12.9609375 C-37.21599349 9.07625735 -35.53079865 6.02181631 -32.125 3.3125 C-27.88168957 3.19781593 -25.19891418 5.53040544 -21.9609375 7.9765625 C-19.15476088 10.01850378 -16.15463605 11.62289528 -13.125 13.3125 C-12.135 13.9725 -11.145 14.6325 -10.125 15.3125 C-10.021875 14.58546875 -9.91875 13.8584375 -9.8125 13.109375 C-9.0577406 10.03887652 -7.92713465 8.14440445 -6.125 5.5625 C-5.58875 4.78390625 -5.0525 4.0053125 -4.5 3.203125 C-2.43038922 0.35741018 -2.43038922 0.35741018 0 0 Z " fill="#054D3A" transform="translate(921.125,87.6875)"/>
<path d="M0 0 C2.86176782 1.38030775 5.47668112 3.06280728 8.125 4.8125 C8.81464844 5.25142578 9.50429688 5.69035156 10.21484375 6.14257812 C12.16581464 7.39783951 14.08509053 8.69059345 16 10 C17.45019531 10.96486328 17.45019531 10.96486328 18.9296875 11.94921875 C21 14 21 14 22.1171875 16.640625 C21.93944602 21.73588085 19.60612195 25.37976644 17.125 29.75 C16.41537109 31.04357422 16.41537109 31.04357422 15.69140625 32.36328125 C14.81747189 33.95428995 13.93681555 35.54163771 13.04736328 37.12402344 C12.33508448 38.39981604 11.65345051 39.69309898 11 41 C4.49862697 41.6763457 1.24951775 39.76682349 -3.9375 36 C-4.62134766 35.52304688 -5.30519531 35.04609375 -6.00976562 34.5546875 C-7.6834179 33.38430129 -9.34318442 32.19410132 -11 31 C-13.75268752 34.46664105 -15.56191343 38.07834773 -17.42578125 42.07421875 C-19 44 -19 44 -21.734375 45 C-25.90843064 45 -28.5175672 43.48334843 -31.9375 41.3125 C-32.51951172 40.95994141 -33.10152344 40.60738281 -33.70117188 40.24414062 C-34.87326922 39.5341326 -36.04177986 38.8181682 -37.20654297 38.09619141 C-40.0988078 36.32839 -43.04988634 34.66909368 -46 33 C-46 32.34 -46 31.68 -46 31 C-47.32 30.34 -48.64 29.68 -50 29 C-49.25 22.25 -49.25 22.25 -47 20 C-46.5978125 18.7625 -46.5978125 18.7625 -46.1875 17.5 C-44.34912622 12.08163519 -42.09083945 6.09083945 -38 2 C-35.8125 1.5625 -35.8125 1.5625 -33 2 C-31.3450419 3.12537151 -29.69605934 4.26347071 -28.11328125 5.48828125 C-24.0084828 8.42461581 -19.45959782 10.65326769 -15 13 C-14.88527344 12.26265625 -14.77054688 11.5253125 -14.65234375 10.765625 C-13.99202344 7.96618319 -13.10870483 6.15418793 -11.5625 3.75 C-11.13066406 3.06421875 -10.69882812 2.3784375 -10.25390625 1.671875 C-7.39810428 -2.13586096 -4.25457847 -0.94593747 0 0 Z " fill="#054D39" transform="translate(548,113)"/>
<path d="M0 0 C0.94875 0.185625 1.8975 0.37125 2.875 0.5625 C4.875 3.5625 4.875 3.5625 5.3125 6.6875 C5.86864921 10.51875014 6.89752429 13.73011541 8.1953125 17.3515625 C8.875 19.5625 8.875 19.5625 9.25 23.4375 C9.55632959 26.76718354 9.55632959 26.76718354 12.4375 28.5 C13.6440625 29.0259375 13.6440625 29.0259375 14.875 29.5625 C14.276875 28.77875 13.67875 27.995 13.0625 27.1875 C9.55608081 21.87777952 7.38529051 15.64721109 8.0625 9.25 C8.74768146 6.14033028 9.52711594 3.437986 10.875 0.5625 C13.6875 0.3125 13.6875 0.3125 16.875 0.5625 C19.26765518 3.1802069 20.5632363 5.89544889 21.8125 9.1875 C22.83002949 11.86293469 23.85052437 14.50778485 25.01953125 17.12109375 C28.62460795 25.28665617 29.07062403 32.10971054 25.9140625 40.546875 C24.10996291 44.04655691 22.25204122 45.48432079 18.875 47.5625 C14.27016601 49.01216996 11.65811641 48.70925502 7.4375 46.625 C6.24016929 45.95476744 5.04891524 45.2729474 3.875 44.5625 C3.33875 45.325625 2.8025 46.08875 2.25 46.875 C-1.0522804 50.61179098 -4.09719558 52.20983836 -9 53.0625 C-13.55555502 52.3336112 -16.76832772 50.74776774 -20.125 47.5625 C-23.93582797 41.45240152 -24.58022477 35.61848396 -24.125 28.5625 C-25.445 27.9025 -26.765 27.2425 -28.125 26.5625 C-28.72154944 20.5528168 -28.98937125 15.9293791 -25.25 10.9375 C-22.66138984 7.87368605 -21.2887457 6.66154219 -17.1875 6.3125 C-14.125 6.5625 -14.125 6.5625 -12.4765625 7.76953125 C-10.73311418 10.08237165 -10.62773535 11.62110505 -10.4375 14.5 C-10.37304688 15.46421875 -10.30859375 16.4284375 -10.2421875 17.421875 C-10.05379626 22.4707602 -10.04566085 27.51124079 -10.125 32.5625 C-8.475 32.5625 -6.825 32.5625 -5.125 32.5625 C-4.03624723 28.00953386 -4.07049772 25.14956288 -5.5625 20.6875 C-7.66383727 14.28620407 -8.34355002 9.23393658 -5.5 3 C-3.125 0.5625 -3.125 0.5625 0 0 Z " fill="#054D39" transform="translate(671.125,179.4375)"/>
<path d="M0 0 C4.02933644 2.57709643 7.24623229 5.48551662 9 10 C9.76106988 15.98971882 9.31812381 20.82372685 6 26 C5 27 5 27 2.625 27.375 C1.325625 27.189375 1.325625 27.189375 0 27 C-1.6875 24.5 -1.6875 24.5 -3 22 C-3.66 22 -4.32 22 -5 22 C-7.02281247 26.57331514 -8.15890031 30.37413549 -8.4375 35.375 C-8.77930513 40.84388205 -9.70405876 46.03498729 -10.875 51.375 C-11.03669678 52.13603027 -11.19839355 52.89706055 -11.36499023 53.68115234 C-12.37384078 58.13539671 -13.6142164 62.04816358 -16 66 C-18.5 67 -18.5 67 -21 67 C-24.89491134 64.40339244 -24.95952027 62.56897598 -26.25 58.125 C-28.51151385 50.95311776 -30.9220934 43.70756701 -36 38 C-38.41869226 37.09942309 -40.22027435 36.99522652 -42.7890625 37.0390625 C-46.77435605 36.96865095 -48.84730141 35.39605093 -52 33 C-55.10532558 28.38906202 -55.19215073 25.69433667 -54.25 20.25 C-52.54738135 12.43541699 -52.54738135 12.43541699 -49.25 9.8125 C-45.86219183 7.92314545 -44.73643749 7.65929141 -41 8 C-31.94765372 11.18271539 -26.76258741 18.27981013 -22.5625 26.5625 C-22.046875 27.696875 -21.53125 28.83125 -21 30 C-20.82984375 29.01 -20.6596875 28.02 -20.484375 27 C-18.63590488 16.73462128 -16.30987317 8.68473846 -9 1 C-5.56007621 -0.14664126 -3.60917881 -0.48585099 0 0 Z " fill="#054D39" transform="translate(288,148)"/>
<path d="M0 0 C3.88905804 2.23413972 6.25580563 4.86901333 8 9 C8.81759109 14.94713517 8.10770338 19.8562151 5 25 C2.5625 26.1875 2.5625 26.1875 0 26 C-2.28967371 24.15554062 -3.68681224 22.62637553 -5 20 C-5.66 20 -6.32 20 -7 20 C-9.19025024 27.50277211 -10.44372603 34.88800306 -11.4375 42.625 C-13.66719321 59.66719321 -13.66719321 59.66719321 -18 64 C-20.875 64.375 -20.875 64.375 -24 64 C-29.12496637 58.11577935 -30.50084677 48.46049196 -32 41 C-32.66 41 -33.32 41 -34 41 C-34.99 39.02 -35.98 37.04 -37 35 C-38.134375 35.144375 -39.26875 35.28875 -40.4375 35.4375 C-46.25767871 35.4789986 -49.99031153 31.88490563 -54 28 C-56.56377118 24.15434323 -56.5099662 22.58969584 -56 18 C-54.08993744 13.0926085 -52.44790664 8.96527109 -48 6 C-42.28899455 5.32242308 -38.69641795 5.95787788 -33.953125 9.25390625 C-27.96553766 14.60680933 -24.38091089 21.43710658 -22 29 C-21.82984375 28.02160156 -21.6596875 27.04320313 -21.484375 26.03515625 C-19.87519043 17.16992988 -18.09020232 9.45352687 -12.875 1.9375 C-8.6645002 -0.90001074 -4.93112953 -0.87736736 0 0 Z " fill="#054D39" transform="translate(728,33)"/>
<path d="M0 0 C4.53382859 -0.4219439 6.92735137 0.81604205 10.75 3.1875 C14.4596232 5.45347673 18.15885701 7.65245736 22 9.6875 C26.23852803 12.05247579 29.21533024 13.94024188 31 18.625 C31 27.8451314 24.74175912 36.44554387 20 44 C19 45 19 45 16.7265625 45.2578125 C13.37599257 44.94099643 12.02212731 43.92010505 9.375 41.875 C4.91802489 38.5789735 0.36117575 35.91046438 -4.5546875 33.359375 C-10.64535448 29.97350901 -10.64535448 29.97350901 -11.98046875 26.30859375 C-12.00703459 21.80834117 -10.43584834 18.95223864 -8.3125 15.0625 C-7.95994141 14.38509766 -7.60738281 13.70769531 -7.24414062 13.00976562 C-4.93741862 8.61139076 -2.4837488 4.30030549 0 0 Z " fill="#054D39" transform="translate(357,326)"/>
<path d="M0 0 C6.28877498 -0.48638674 9.7036508 0.32475987 14.625 4.4375 C15.18695068 4.89125 15.74890137 5.345 16.32788086 5.8125 C23.91380462 12.15970263 27.83469652 19.73235662 31 29 C31.4125 30.19625 31.825 31.3925 32.25 32.625 C35.12428095 45.22564237 32.85416057 58.26911195 28 70 C27.34 70.99 26.68 71.98 26 73 C23.4375 73.25 23.4375 73.25 21 73 C20.505 72.505 20.505 72.505 20 72 C20.0042418 70.05725342 20.01575838 68.11422271 20.06591797 66.17211914 C20.40669757 52.20156363 18.67887504 38.95021196 9.23046875 27.9375 C7.53686993 26.22545239 5.79394738 24.60577108 4 23 C3.03548805 22.04788538 2.07645396 21.09016367 1.125 20.125 C0.42375 19.42375 -0.2775 18.7225 -1 18 C-2 17 -2 17 -2.1328125 15.1875 C-2.13023437 14.465625 -2.12765625 13.74375 -2.125 13 C-2.12757813 12.278125 -2.13015625 11.55625 -2.1328125 10.8125 C-2 9 -2 9 -1 8 C-0.76924918 6.65252916 -0.58846937 5.29622435 -0.4375 3.9375 C-0.293125 2.638125 -0.14875 1.33875 0 0 Z " fill="#054D39" transform="translate(639,105)"/>
<path d="M0 0 C0.928125 0.226875 1.85625 0.45375 2.8125 0.6875 C3.17428647 8.28501588 1.93165045 14.03826118 -1.21484375 20.94140625 C-2.48422879 24.52525237 -2.93661312 28.11982557 -3.375 31.875 C-3.51711914 32.96071289 -3.51711914 32.96071289 -3.66210938 34.06835938 C-4.26512026 37.98791324 -4.26512026 37.98791324 -3.1875 41.6875 C-2.1975 42.0175 -1.2075 42.3475 -0.1875 42.6875 C0.080625 42.130625 0.34875 41.57375 0.625 41 C4.29076087 33.86141304 4.29076087 33.86141304 7.8125 32.6875 C9.2975 33.1825 9.2975 33.1825 10.8125 33.6875 C11.27648196 41.88451457 10.0071065 51.03840368 4.8125 57.6875 C1.02350534 61.05549525 -1.7760236 61.28178769 -6.71484375 61.078125 C-9.67730606 60.61012148 -11.85579744 59.70888779 -14 57.55859375 C-18.64772908 50.23536274 -18.51144878 41.91489597 -17.1875 33.6875 C-17.05921229 32.10442966 -16.9341118 30.52109718 -16.8125 28.9375 C-16.37693021 25.0035443 -15.11947195 22.16504952 -13.1875 18.6875 C-12.89875 17.78 -12.61 16.8725 -12.3125 15.9375 C-6.57262035 -0.64437454 -6.57262035 -0.64437454 0 0 Z " fill="#054C39" transform="translate(182.1875,51.3125)"/>
<path d="M0 0 C2.00720923 0.28674418 4.0085944 0.61866701 6 1 C5.51085756 5.80990066 4.81238733 9.5223372 3 14 C0.62712595 22.26470418 0.79555892 30.48162156 1 39 C2.32 39 3.64 39 5 39 C6.39652202 37.23951472 6.39652202 37.23951472 7.4375 35 C8.69921875 32.78515625 8.69921875 32.78515625 10 31 C12.75 30.4375 12.75 30.4375 15 31 C16 32 16 32 16.3125 35.75 C16.21799349 44.17458045 13.73792711 52.74955902 8 59 C4.60287229 60.82922261 1.83349644 61.46749957 -2 61 C-5.3125 59.5 -5.3125 59.5 -8 58 C-8 57.01 -8 56.02 -8 55 C-8.99 54.67 -9.98 54.34 -11 54 C-16.26887811 42.07569691 -12.90650537 26.73518975 -8.5 15.0625 C-7.13141173 11.62851174 -5.7069422 8.27954173 -4 5 C-3.34 5 -2.68 5 -2 5 C-1.855625 4.360625 -1.71125 3.72125 -1.5625 3.0625 C-1 1 -1 1 0 0 Z " fill="#054D39" transform="translate(629,329)"/>
<path d="M0 0 C1.1446875 0.12955078 1.1446875 0.12955078 2.3125 0.26171875 C2.61854248 6.42790788 2.5705884 11.41200899 0.1171875 17.1015625 C-2.57513604 24.32901356 -3.13343809 31.7428407 -1.6875 39.26171875 C0.2925 39.26171875 2.2725 39.26171875 4.3125 39.26171875 C4.43625 38.47796875 4.56 37.69421875 4.6875 36.88671875 C5.3125 34.26171875 5.3125 34.26171875 7.3125 32.26171875 C9.9375 32.13671875 9.9375 32.13671875 12.3125 32.26171875 C12.75956739 40.97125386 12.16292956 48.64205704 7.5 56.19921875 C3.76403191 59.72170295 0.94649812 61.29038538 -4.25 61.19921875 C-9.31003822 59.81920833 -11.81009324 57.57782888 -14.6875 53.26171875 C-17.09053511 46.51635703 -16.72018433 40.24226762 -15.6875 33.26171875 C-15.5740625 32.44832031 -15.460625 31.63492187 -15.34375 30.796875 C-14.02832654 22.99287239 -9.21718949 0.89760421 0 0 Z " fill="#054C38" transform="translate(100.6875,333.73828125)"/>
<path d="M0 0 C2.5 0.125 2.5 0.125 3.5 1.125 C3.93452622 7.20836704 2.34248593 12.18306993 -0.0625 17.7265625 C-1.8810241 22.54740369 -1.84014918 27.0288659 -1.6875 32.125 C-1.67396484 32.99511719 -1.66042969 33.86523438 -1.64648438 34.76171875 C-1.61151678 36.88308627 -1.5577253 39.00412974 -1.5 41.125 C-0.84 41.455 -0.18 41.785 0.5 42.125 C2.84381129 41.23103104 2.84381129 41.23103104 3.6875 38.125 C4.285625 37.135 4.88375 36.145 5.5 35.125 C9.1875 34.25 9.1875 34.25 12.5 34.125 C12.85097904 43.64043181 11.96882816 51.15613611 6.5 59.125 C3.58255709 61.56934406 1.84865365 62.0806259 -1.9375 62.5625 C-6.34840672 62.0208097 -8.2089443 61.12351742 -11.5 58.125 C-17.62587632 50.00773974 -16.26571518 38.58470358 -15.1328125 29.02734375 C-13.79713644 22.52278432 -7.58242947 0.37912147 0 0 Z " fill="#044D39" transform="translate(453.5,308.875)"/>
<path d="M0 0 C1.98 0 3.96 0 6 0 C6.26427604 6.4747629 5.74980438 11.83461202 3.19921875 17.90625 C0.33895628 25.17213002 0.726446 32.3100931 1 40 C2.32 40.33 3.64 40.66 5 41 C5.33 40.34 5.66 39.68 6 39 C6.66 39 7.32 39 8 39 C8.66 37.35 9.32 35.7 10 34 C11.98 34 13.96 34 16 34 C15.40274981 48.84887534 15.40274981 48.84887534 12 55 C11.54625 55.928125 11.0925 56.85625 10.625 57.8125 C8.57946573 60.56610383 7.33964694 61.24098933 4 62 C-0.75978806 61.74501135 -4.1886082 60.91459373 -8 58 C-8.495 56.515 -8.495 56.515 -9 55 C-9.66 55 -10.32 55 -11 55 C-15.03320364 40.09155085 -13.06156652 25.66384417 -6 12 C-4.89581384 9.77084299 -3.79164708 7.54167637 -2.6875 5.3125 C-1.79369188 3.5406436 -0.89860919 1.76942634 0 0 Z " fill="#054C38" transform="translate(963,285)"/>
<path d="M0 0 C0.46058555 6.33305136 -0.47884445 11.86864779 -1.9375 18 C-2.21062012 19.14940063 -2.21062012 19.14940063 -2.48925781 20.32202148 C-3.85662254 25.85662254 -3.85662254 25.85662254 -5 27 C-5.07313567 29.53049402 -5.09247527 32.03304837 -5.0625 34.5625 C-5.05798828 35.27341797 -5.05347656 35.98433594 -5.04882812 36.71679688 C-5.03700864 38.47790013 -5.01907263 40.23896036 -5 42 C-3.35 42 -1.7 42 0 42 C0.66 40.02 1.32 38.04 2 36 C2.66 36 3.32 36 4 36 C4 35.01 4 34.02 4 33 C5.98 33 7.96 33 10 33 C10.59552534 41.40352421 10.06994942 51.03613404 4.48828125 57.84375 C3 59 3 59 1 59 C1 59.66 1 60.32 1 61 C-0.91595968 61.08133791 -2.83291932 61.13934367 -4.75 61.1875 C-6.35101563 61.23970703 -6.35101563 61.23970703 -7.984375 61.29296875 C-11.37573995 60.96349677 -12.62640992 60.40062414 -15 58 C-20.1274205 48.67561754 -19.60662884 37.57343401 -16.76953125 27.71484375 C-15.85071231 24.47332514 -15.37968892 21.34126252 -15 18 C-14.34 18 -13.68 18 -13 18 C-12.88398438 17.30390625 -12.76796875 16.6078125 -12.6484375 15.890625 C-11.92786673 12.67844204 -10.86418773 9.79915283 -9.625 6.75 C-9.20476562 5.69296875 -8.78453125 4.6359375 -8.3515625 3.546875 C-6.25820593 -0.3978316 -4.32938411 0 0 0 Z " fill="#054C38" transform="translate(189,261)"/>
<path d="M0 0 C2.475 0.99 2.475 0.99 5 2 C4.37412795 6.99407183 3.35964027 11.76042399 2.0625 16.625 C-1.78263272 28.5638327 -1.78263272 28.5638327 -1.0390625 40.359375 C-0.69617188 40.90078125 -0.35328125 41.4421875 0 42 C1.88658874 42.03525132 1.88658874 42.03525132 4 41 C5.59501537 38.75835678 6.74543018 36.46433357 8 34 C9.65 34 11.3 34 13 34 C13.41732107 42.79851917 13.71248522 50.23702211 9 58 C8.34 58 7.68 58 7 58 C6.67 58.99 6.34 59.98 6 61 C3.53630468 62.23184766 1.8105499 62.16732342 -0.9375 62.1875 C-2.25041016 62.20876953 -2.25041016 62.20876953 -3.58984375 62.23046875 C-6 62 -6 62 -9 60 C-9 59.34 -9 58.68 -9 58 C-9.66 58 -10.32 58 -11 58 C-13.43417427 52.27291093 -14.52413049 47.64488191 -14.4375 41.4375 C-14.42920166 40.65665039 -14.42090332 39.87580078 -14.41235352 39.07128906 C-14.04814606 26.31236318 -10.08565829 10.81197861 -1.28515625 1.109375 C-0.86105469 0.74328125 -0.43695313 0.3771875 0 0 Z " fill="#054C38" transform="translate(327,360)"/>
<path d="M0 0 C0.37839928 7.18958629 0.37839928 7.18958629 -1.43359375 11.0703125 C-3.64868134 15.95084731 -3.84733396 21.02577258 -4.25 26.3125 C-4.34023438 27.31345703 -4.43046875 28.31441406 -4.5234375 29.34570312 C-5.19454079 34.32245607 -5.19454079 34.32245607 -4 39 C-3.01 39.33 -2.02 39.66 -1 40 C-0.71125 39.05125 -0.4225 38.1025 -0.125 37.125 C1 34 1 34 3 32 C5.5625 31.8125 5.5625 31.8125 8 32 C9 33 9 33 9.01953125 35.87890625 C8.5638519 43.98655951 7.98941468 50.26187164 2.60546875 56.65625 C-0.16208843 58.97264823 -3.52752732 58.98682174 -7 59 C-11.08469192 58.29303409 -12.54189153 57.53445989 -15.25 54.375 C-21.05924906 43.17144824 -19.73744604 30.10727242 -16.1875 18.296875 C-10.56398104 3.39454976 -10.56398104 3.39454976 -5 -0.34375 C-3 -1 -3 -1 0 0 Z " fill="#054C39" transform="translate(611,39)"/>
<path d="M0 0 C1.2065625 0.0309375 1.2065625 0.0309375 2.4375 0.0625 C2.7816434 6.16785887 2.3715441 11.04483173 0.23828125 16.77734375 C-2.30854531 24.0451171 -4.04687251 32.60938246 -1.5625 40.0625 C0.45258358 40.79573796 0.45258358 40.79573796 2.4375 41.0625 C2.705625 40.134375 2.97375 39.20625 3.25 38.25 C4.97829696 33.6108871 4.97829696 33.6108871 7.4375 32.0625 C10.125 32.375 10.125 32.375 12.4375 33.0625 C13.31246327 41.85101997 11.36989135 49.75654097 6.05078125 56.93359375 C3.4304548 59.46777248 0.9144045 60.39214444 -2.625 60.625 C-7.94597982 59.86486003 -9.93051922 57.98590592 -13.3125 54 C-17.68784009 43.71795079 -16.43196133 29.37094319 -12.59667969 19.12060547 C-4.88862172 0.11923468 -4.88862172 0.11923468 0 0 Z " fill="#054D39" transform="translate(747.5625,167.9375)"/>
</svg>
